<?xml version="1.0" standalone="no"?>
<!DOCTYPE svg PUBLIC "-//W3C//DTD SVG 20010904//EN"
 "http://www.w3.org/TR/2001/REC-SVG-20010904/DTD/svg10.dtd">
<svg version="1.0" xmlns="http://www.w3.org/2000/svg"
 width="5400.000000pt" height="7200.000000pt" viewBox="0 0 5400.000000 7200.000000"
 preserveAspectRatio="xMidYMid meet">

<g transform="translate(0.000000,7200.000000) scale(0.100000,-0.100000)"
fill="#000000" stroke="none">
<path d="M31284 39639 c-27 -18 -186 -115 -354 -217 -168 -102 -345 -210 -394
-240 -49 -30 -126 -71 -170 -90 -45 -19 -137 -58 -206 -87 -148 -62 -736 -311
-1330 -563 -266 -112 -468 -192 -540 -212 -139 -38 -428 -120 -972 -274 l-407
-115 -578 -71 c-318 -39 -701 -86 -851 -105 -150 -19 -279 -32 -285 -30 -7 3
-196 34 -422 70 -225 36 -506 82 -624 101 l-215 35 -655 216 c-651 215 -701
234 -1181 443 -372 163 -514 220 -521 213 -8 -8 -203 -531 -242 -648 -12 -35
-24 -161 -42 -425 -14 -206 -32 -465 -40 -575 -8 -110 -15 -239 -15 -287 0
-68 102 -1599 136 -2033 3 -44 60 -512 125 -1039 l120 -959 204 -1141 c112
-628 260 -1422 330 -1766 69 -344 150 -749 181 -900 30 -151 79 -356 108 -455
30 -99 111 -373 181 -610 70 -236 156 -506 190 -600 35 -93 115 -312 179 -485
l115 -315 131 -725 c72 -399 160 -880 196 -1070 36 -190 85 -451 109 -580 30
-162 50 -308 65 -470 11 -129 30 -341 41 -470 30 -323 28 -421 -20 -1000 -75
-909 -75 -692 3 -1943 50 -818 72 -1115 86 -1182 10 -49 73 -349 140 -665 66
-316 154 -735 195 -930 41 -195 103 -472 138 -615 172 -691 233 -962 304
-1335 l77 -405 7 -515 c4 -283 12 -584 18 -668 l10 -152 125 -248 125 -247 84
-296 84 -296 -38 -234 c-21 -129 -39 -245 -39 -259 0 -14 21 -92 46 -175 25
-82 52 -170 59 -195 7 -25 25 -83 39 -129 14 -47 26 -95 26 -107 0 -20 -43
-183 -101 -377 -11 -37 -65 -154 -120 -260 l-100 -191 16 -36 c38 -84 23 -79
295 -95 135 -8 391 -33 570 -55 292 -36 363 -49 700 -126 206 -47 383 -90 392
-95 9 -5 87 -54 173 -110 86 -55 158 -99 159 -97 2 1 11 188 20 413 15 359 43
983 76 1670 5 116 28 595 50 1065 97 2063 110 2355 119 2529 7 125 5 747 -5
1910 l-14 1726 -75 1179 c-69 1075 -78 1200 -110 1410 -40 259 -83 549 -120
796 -14 91 -43 284 -65 430 -22 146 -51 391 -65 545 -27 312 -23 268 -101
1155 l-56 645 27 580 c14 319 30 588 33 598 14 36 131 -670 158 -953 14 -146
38 -400 54 -565 16 -165 36 -444 45 -620 25 -508 83 -1072 155 -1510 33 -203
67 -413 75 -465 25 -163 64 -905 69 -1345 3 -225 10 -491 16 -590 6 -99 28
-544 50 -990 22 -445 62 -1262 90 -1815 129 -2604 193 -3891 218 -4405 l28
-560 -48 -1140 c-26 -627 -51 -1225 -55 -1328 -4 -104 -5 -191 0 -194 4 -2
193 -4 420 -3 346 2 423 0 482 -14 182 -41 1217 -256 1235 -256 18 0 20 7 20
78 1 201 30 1257 40 1412 6 96 26 443 45 770 l34 595 166 600 c151 546 218
773 525 1770 54 176 105 343 113 370 8 28 69 226 135 440 161 522 160 518 452
1645 21 80 70 267 109 416 l71 270 0 973 0 972 -49 217 c-27 119 -116 510
-196 867 -286 1268 -269 1201 -361 1470 -212 621 -195 560 -273 1005 l-71 406
81 509 c44 281 86 535 93 565 7 30 61 222 120 425 109 374 161 554 371 1285
115 401 194 672 379 1317 94 326 100 352 301 1375 l205 1043 90 1260 91 1260
24 1030 c13 567 27 1116 30 1220 6 181 4 213 -44 675 -28 267 -55 526 -61 575
-5 50 -42 402 -81 784 l-71 694 -73 156 c-40 86 -163 347 -274 581 l-201 425
-97 97 c-54 54 -102 98 -108 98 -6 0 -33 -14 -61 -31z"/>
</g>
</svg>
