<?xml version="1.0" standalone="no"?>
<!DOCTYPE svg PUBLIC "-//W3C//DTD SVG 20010904//EN"
 "http://www.w3.org/TR/2001/REC-SVG-20010904/DTD/svg10.dtd">
<svg version="1.0" xmlns="http://www.w3.org/2000/svg"
 width="5400.000000pt" height="7200.000000pt" viewBox="0 0 5400.000000 7200.000000"
 preserveAspectRatio="xMidYMid meet">

<g transform="translate(0.000000,7200.000000) scale(0.100000,-0.100000)"
fill="#000000" stroke="none">
<path d="M27996 55095 c-3 -8 -8 -37 -12 -64 -5 -40 -1 -63 25 -132 33 -90 65
-220 76 -311 7 -63 13 -59 -96 -74 -42 -5 -59 -17 -160 -110 -72 -65 -179
-147 -289 -221 -165 -111 -188 -123 -405 -211 l-230 -94 -224 22 -224 22 -98
-98 -97 -97 -36 -146 c-29 -121 -36 -172 -41 -300 -6 -141 -4 -167 21 -302
l28 -148 -33 -106 c-27 -91 -104 -285 -261 -660 -21 -49 -76 -171 -123 -270
-46 -99 -98 -211 -116 -250 -79 -172 -125 -265 -128 -261 -3 2 -13 66 -23 143
-10 76 -53 326 -94 555 -42 229 -83 483 -92 565 -44 415 -43 375 -17 465 16
54 46 119 89 190 l65 109 9 126 9 126 -173 173 -173 172 -7 106 c-9 127 7 242
38 284 11 16 54 72 93 124 l73 95 5 109 c3 60 8 135 10 167 l5 58 -98 -6 c-96
-7 -98 -7 -282 -95 -111 -53 -249 -109 -345 -141 -88 -29 -165 -57 -171 -63
-6 -6 -19 -100 -28 -210 -10 -109 -22 -210 -27 -223 -5 -13 -9 -35 -9 -48 0
-19 -6 -25 -32 -30 -29 -5 -755 -102 -1158 -155 -80 -10 -332 -44 -560 -75
-228 -31 -498 -67 -600 -80 -102 -13 -369 -49 -595 -79 -608 -82 -1520 -204
-1685 -226 -80 -10 -703 -94 -1385 -185 -682 -91 -1375 -184 -1540 -205 -165
-22 -347 -47 -405 -55 -94 -13 -870 -117 -1345 -180 -99 -13 -423 -56 -720
-95 -297 -39 -549 -73 -560 -75 -17 -4 -25 -21 -44 -107 -12 -57 -33 -148 -47
-203 -13 -55 -46 -198 -74 -318 l-50 -217 0 -428 0 -427 40 -325 c22 -179 44
-332 48 -342 17 -39 234 -288 255 -292 12 -3 274 -30 582 -61 l560 -55 925 0
c648 0 1151 6 1680 20 415 11 958 24 1205 30 l450 11 310 -92 c342 -101 313
-96 910 -164 366 -42 555 -53 956 -55 323 -2 231 -18 724 118 138 38 253 66
257 63 7 -6 -139 -402 -231 -627 -22 -55 -57 -154 -77 -220 -20 -65 -49 -142
-65 -171 l-30 -52 7 -193 7 -193 52 -150 c29 -82 78 -217 108 -300 30 -82 96
-283 146 -446 84 -273 100 -316 214 -560 69 -145 136 -289 150 -320 24 -53 27
-79 51 -435 l27 -379 -56 -555 c-30 -305 -59 -575 -65 -600 -5 -25 -44 -227
-85 -450 -42 -223 -87 -450 -100 -505 -13 -55 -47 -194 -75 -310 -28 -115 -69
-282 -90 -370 -21 -88 -70 -288 -108 -445 -39 -157 -95 -389 -126 -517 l-56
-231 -151 -329 c-83 -180 -188 -409 -234 -508 -45 -99 -92 -214 -103 -255 -12
-41 -59 -210 -106 -375 -46 -165 -96 -345 -111 -400 -15 -55 -37 -138 -50
-185 -12 -47 -37 -139 -54 -205 -18 -66 -39 -143 -47 -170 -10 -35 -15 -115
-17 -265 l-2 -214 165 -103 c91 -57 194 -121 230 -144 484 -304 568 -352 700
-404 74 -29 254 -100 400 -158 146 -58 398 -158 560 -222 581 -230 461 -196
978 -276 1102 -171 996 -157 1086 -143 123 19 377 58 736 114 179 28 453 71
610 95 157 24 400 62 541 84 l256 40 199 79 c109 44 397 160 639 257 242 98
483 195 535 215 384 151 615 250 1500 648 80 35 183 81 230 102 303 132 348
155 470 243 69 50 190 138 270 195 80 57 148 108 153 111 4 4 -6 160 -23 347
l-31 339 -311 620 c-309 616 -360 713 -643 1230 -81 149 -187 342 -235 430
-48 88 -153 282 -235 430 -81 149 -171 313 -200 365 -28 52 -86 158 -128 235
-42 77 -117 237 -167 355 -50 118 -126 298 -170 400 -172 404 -257 606 -268
635 -10 25 -37 482 -68 1150 l-7 140 86 265 c78 244 202 629 314 975 25 77 65
217 88 310 37 146 51 185 98 270 30 55 149 273 265 485 115 212 226 416 247
453 31 57 67 96 207 225 l169 157 107 41 c59 22 166 63 237 91 72 28 240 94
375 146 135 53 315 123 400 157 l155 61 1170 79 1170 80 915 0 c1047 -1 3071
25 3235 40 61 6 205 24 320 40 116 16 345 47 510 70 165 22 329 45 365 50 150
22 1125 183 1129 186 2 2 -27 63 -65 136 -37 73 -119 232 -181 353 l-113 220
-19 354 -20 354 55 346 c31 190 62 385 69 434 10 66 11 112 4 190 -6 56 -12
107 -14 113 -2 7 -52 14 -132 18 -70 4 -193 11 -273 17 -80 5 -523 32 -985 60
l-840 51 -565 -6 c-311 -3 -892 -11 -1292 -17 -766 -11 -704 -12 -1283 31
-277 21 -434 32 -1150 85 -407 30 -776 57 -820 60 -89 7 -79 3 -850 342 -44
19 -114 50 -155 68 l-75 32 -235 -13 c-129 -7 -485 -27 -790 -44 -305 -17
-697 -39 -870 -49 l-315 -19 -359 44 c-198 25 -362 46 -364 48 -2 3 -3 80 -2
173 1 188 -8 146 134 611 31 101 56 189 56 196 0 7 -37 38 -82 69 -46 31 -149
112 -229 180 l-147 123 -138 38 c-199 54 -324 76 -440 76 -81 0 -103 -3 -108
-15z"/>
</g>
</svg>
